<?xml version="1.0" encoding="UTF-8" standalone="no"?>
<!DOCTYPE svg PUBLIC "-//W3C//DTD SVG 1.1//EN"
 "http://www.w3.org/Graphics/SVG/1.1/DTD/svg11.dtd">
<!-- Generated by graphviz version 2.40.1 (20161225.0304)
 -->
<!-- Title: dependencies Pages: 1 -->
<svg width="504pt" height="211pt"
 viewBox="0.00 0.00 504.00 211.00" xmlns="http://www.w3.org/2000/svg" xmlns:xlink="http://www.w3.org/1999/xlink">
<g id="graph0" class="graph" transform="scale(1 1) rotate(0) translate(4 207)">
<title>dependencies</title>
<polygon fill="#ffffff" stroke="transparent" points="-4,4 -4,-207 500,-207 500,4 -4,4"/>
<text text-anchor="start" x="227.0091" y="-42.4" font-family="sans-serif" font-weight="bold" font-size="14.00" fill="#000000">Legend</text>
<polygon fill="#ffffb3" stroke="transparent" points="14,-10 14,-30 34,-30 34,-10 14,-10"/>
<text text-anchor="start" x="37.629" y="-15.4" font-family="sans-serif" font-size="14.00" fill="#000000"> &#160;Declarations</text>
<polygon fill="#8dd3c7" stroke="transparent" points="127,-10 127,-30 147,-30 147,-10 127,-10"/>
<text text-anchor="start" x="150.7251" y="-15.4" font-family="sans-serif" font-size="14.00" fill="#000000"> &#160;Module</text>
<polygon fill="#80b1d3" stroke="transparent" points="213,-10 213,-30 233,-30 233,-10 213,-10"/>
<text text-anchor="start" x="236.7812" y="-15.4" font-family="sans-serif" font-size="14.00" fill="#000000"> &#160;Bootstrap</text>
<polygon fill="#fdb462" stroke="transparent" points="310,-10 310,-30 330,-30 330,-10 310,-10"/>
<text text-anchor="start" x="333.6732" y="-15.4" font-family="sans-serif" font-size="14.00" fill="#000000"> &#160;Providers</text>
<polygon fill="#fb8072" stroke="transparent" points="406,-10 406,-30 426,-30 426,-10 406,-10"/>
<text text-anchor="start" x="429.7258" y="-15.4" font-family="sans-serif" font-size="14.00" fill="#000000"> &#160;Exports</text>
<g id="clust1" class="cluster">
<title>cluster_AppModule</title>
<polygon fill="none" stroke="#000000" stroke-dasharray="1,5" points="18.5,-70 18.5,-195 477.5,-195 477.5,-70 18.5,-70"/>
</g>
<g id="clust3" class="cluster">
<title>cluster_AppModule_imports</title>
<polygon fill="none" stroke="#000000" points="26.5,-78 26.5,-130 469.5,-130 469.5,-78 26.5,-78"/>
</g>
<!-- CoreModule -->
<g id="node1" class="node">
<title>CoreModule</title>
<polygon fill="#8dd3c7" stroke="#000000" points="461.7619,-122 458.7619,-126 437.7619,-126 434.7619,-122 375.2381,-122 375.2381,-86 461.7619,-86 461.7619,-122"/>
<text text-anchor="middle" x="418.5" y="-99.8" font-family="Times,serif" font-size="14.00" fill="#000000">CoreModule</text>
</g>
<!-- AppModule -->
<g id="node4" class="node">
<title>AppModule</title>
<polygon fill="#8dd3c7" stroke="#000000" points="325.1571,-187 322.1571,-191 301.1571,-191 298.1571,-187 241.8429,-187 241.8429,-151 325.1571,-151 325.1571,-187"/>
<text text-anchor="middle" x="283.5" y="-164.8" font-family="Times,serif" font-size="14.00" fill="#000000">AppModule</text>
</g>
<!-- CoreModule&#45;&gt;AppModule -->
<g id="edge1" class="edge">
<title>CoreModule&#45;&gt;AppModule</title>
<path fill="none" stroke="#000000" d="M418.5,-122.1061C418.5,-141.3391 418.5,-169 418.5,-169 418.5,-169 335.4748,-169 335.4748,-169"/>
<polygon fill="#000000" stroke="#000000" points="335.4749,-165.5001 325.4748,-169 335.4748,-172.5001 335.4749,-165.5001"/>
</g>
<!-- PaymentIntentsModule -->
<g id="node2" class="node">
<title>PaymentIntentsModule</title>
<polygon fill="#8dd3c7" stroke="#000000" points="356.6442,-122 353.6442,-126 332.6442,-126 329.6442,-122 210.3558,-122 210.3558,-86 356.6442,-86 356.6442,-122"/>
<text text-anchor="middle" x="283.5" y="-99.8" font-family="Times,serif" font-size="14.00" fill="#000000">PaymentIntentsModule</text>
</g>
<!-- PaymentIntentsModule&#45;&gt;AppModule -->
<g id="edge2" class="edge">
<title>PaymentIntentsModule&#45;&gt;AppModule</title>
<path fill="none" stroke="#000000" d="M283.5,-122.1061C283.5,-122.1061 283.5,-140.991 283.5,-140.991"/>
<polygon fill="#000000" stroke="#000000" points="280.0001,-140.9909 283.5,-150.991 287.0001,-140.991 280.0001,-140.9909"/>
</g>
<!-- PaymentMethodsModule -->
<g id="node3" class="node">
<title>PaymentMethodsModule</title>
<polygon fill="#8dd3c7" stroke="#000000" points="192.0379,-122 189.0379,-126 168.0379,-126 165.0379,-122 34.9621,-122 34.9621,-86 192.0379,-86 192.0379,-122"/>
<text text-anchor="middle" x="113.5" y="-99.8" font-family="Times,serif" font-size="14.00" fill="#000000">PaymentMethodsModule</text>
</g>
<!-- PaymentMethodsModule&#45;&gt;AppModule -->
<g id="edge3" class="edge">
<title>PaymentMethodsModule&#45;&gt;AppModule</title>
<path fill="none" stroke="#000000" d="M113.5,-122.1061C113.5,-141.3391 113.5,-169 113.5,-169 113.5,-169 231.4775,-169 231.4775,-169"/>
<polygon fill="#000000" stroke="#000000" points="231.4776,-172.5001 241.4775,-169 231.4775,-165.5001 231.4776,-172.5001"/>
</g>
</g>
</svg>
